HIERARCHY
ROOT Hips
{
	OFFSET 0.00000 0.00000 0.00000
	CHANNELS 6 Xposition Yposition Zposition Zrotation Yrotation Xrotation 
	JOINT LHipJoint
	{
		OFFSET 0 0 0
		CHANNELS 3 Zrotation Yrotation Xrotation
		JOINT LeftUpLeg
		{
			OFFSET 1.54859 -1.61379 0.86856
			CHANNELS 3 Zrotation Yrotation Xrotation
			JOINT LeftLeg
			{
				OFFSET 2.25087 -6.18423 0.00000
				CHANNELS 3 Zrotation Yrotation Xrotation
				JOINT LeftFoot
				{
					OFFSET 2.40328 -6.60297 0.00000
					CHANNELS 3 Zrotation Yrotation Xrotation
					JOINT LeftToeBase
					{
						OFFSET 0.17435 -0.47901 2.02453
						CHANNELS 3 Zrotation Yrotation Xrotation
						End Site
						{
							OFFSET 0.00000 -0.00000 1.04844
						}
					}
				}
			}
		}
	}
	JOINT RHipJoint
	{
		OFFSET 0 0 0
		CHANNELS 3 Zrotation Yrotation Xrotation
		JOINT RightUpLeg
		{
			OFFSET -1.54669 -1.61379 0.86856
			CHANNELS 3 Zrotation Yrotation Xrotation
			JOINT RightLeg
			{
				OFFSET -2.28132 -6.26789 0.00000
				CHANNELS 3 Zrotation Yrotation Xrotation
				JOINT RightFoot
				{
					OFFSET -2.51636 -6.91365 0.00000
					CHANNELS 3 Zrotation Yrotation Xrotation
					JOINT RightToeBase
					{
						OFFSET -0.15124 -0.41552 2.21090
						CHANNELS 3 Zrotation Yrotation Xrotation
						End Site
						{
							OFFSET -0.00000 -0.00000 1.13399
						}
					}
				}
			}
		}
	}
	JOINT LowerBack
	{
		OFFSET 0 0 0
		CHANNELS 3 Zrotation Yrotation Xrotation
		JOINT Spine
		{
			OFFSET -0.04287 2.26161 -0.25690
			CHANNELS 3 Zrotation Yrotation Xrotation
			JOINT Spine1
			{
				OFFSET 0.02248 2.28395 -0.10140
				CHANNELS 3 Zrotation Yrotation Xrotation
				JOINT Neck
				{
					OFFSET 0 0 0
					CHANNELS 3 Zrotation Yrotation Xrotation
					JOINT Neck1
					{
						OFFSET -0.11644 1.38496 0.11345
						CHANNELS 3 Zrotation Yrotation Xrotation
						JOINT Head
						{
							OFFSET 0.29383 1.36600 0.06642
							CHANNELS 3 Zrotation Yrotation Xrotation
							End Site
							{
								OFFSET 0.11075 1.41395 -0.00294
							}
						}
					}
				}
				JOINT LeftShoulder
				{
					OFFSET 0 0 0
					CHANNELS 3 Zrotation Yrotation Xrotation
					JOINT LeftArm
					{
						OFFSET 3.51628 0.59542 -0.30346
						CHANNELS 3 Zrotation Yrotation Xrotation
						JOINT LeftForeArm
						{
							OFFSET 4.76405 -0.00000 0.00000
							CHANNELS 3 Zrotation Yrotation Xrotation
							JOINT LeftHand
							{
								OFFSET 3.13759 -0.00000 -0.00000
								CHANNELS 3 Zrotation Yrotation Xrotation
								JOINT LeftFingerBase
								{
									OFFSET 0 0 0
									CHANNELS 3 Zrotation Yrotation Xrotation
									JOINT LeftHandIndex1
									{
										OFFSET 0.73226 -0.00000 -0.00000
										CHANNELS 3 Zrotation Yrotation Xrotation
										End Site
										{
											OFFSET 0.59037 -0.00000 -0.00000
										}
									}
								}
								JOINT LThumb
								{
									OFFSET 0 0 0
									CHANNELS 3 Zrotation Yrotation Xrotation
									End Site
									{
										OFFSET 0.59938 -0.00000 0.59938
									}
								}
							}
						}
					}
				}
				JOINT RightShoulder
				{
					OFFSET 0 0 0
					CHANNELS 3 Zrotation Yrotation Xrotation
					JOINT RightArm
					{
						OFFSET -3.30990 0.84213 -0.36430
						CHANNELS 3 Zrotation Yrotation Xrotation
						JOINT RightForeArm
						{
							OFFSET -5.10161 -0.00000 -0.00000
							CHANNELS 3 Zrotation Yrotation Xrotation
							JOINT RightHand
							{
								OFFSET -3.23267 -0.00000 -0.00000
								CHANNELS 3 Zrotation Yrotation Xrotation
								JOINT RightFingerBase
								{
									OFFSET 0 0 0
									CHANNELS 3 Zrotation Yrotation Xrotation
									JOINT RightHandIndex1
									{
										OFFSET -0.70200 -0.00000 -0.00000
										CHANNELS 3 Zrotation Yrotation Xrotation
										End Site
										{
											OFFSET -0.56597 -0.00000 -0.00000
										}
									}
								}
								JOINT RThumb
								{
									OFFSET 0 0 0
									CHANNELS 3 Zrotation Yrotation Xrotation
									End Site
									{
										OFFSET -0.57461 -0.00000 0.57461
									}
								}
							}
						}
					}
				}
			}
		}
	}
}
MOTION
Frames: 11
Frame Time: .0083333
5.5921 14.7991 -2.3139 -168.1920 -82.8342 168.2940 0.0000 0.0000 0.0000 -12.7041 1.2536 -31.1264 10.3032 17.5769 60.4971 1.7643 -9.3040 -23.8190 0.5429 -4.7206 -13.1132 0.0000 0.0000 0.0000 16.6944 4.8260 -31.1611 -10.4479 -17.6541 60.9751 -1.7839 -5.0366 -27.4555 -0.4500 4.3035 -11.9322 -2.3785 1.0430 12.9182 0.5666 0.7798 6.5440 1.8283 0.1825 -0.4217 -16.3208 -7.7040 -3.1450 25.3081 -9.0517 -12.4346 10.6368 -4.9675 -0.8491 -0.0000 0.0000 0.0000 -3.4483 -58.7480 -10.0865 42.3759 -49.4162 -20.2256 -0.0000 -0.0000 0.2326 15.1056 19.7977 5.2237 -7.1250 0.0000 -0.0000 -13.1488 49.9668 -1.6349 -0.0000 0.0000 0.0000 5.8762 67.1314 -13.6312 -40.5296 48.3806 -18.8342 0.0000 -0.0000 -1.3493 -2.4432 24.7694 -1.0241 7.1250 -0.0000 -0.0000 16.4459 -6.0149 15.2912
5.5930 14.8028 -2.3136 -168.8910 -82.8594 168.9700 0.0000 0.0000 0.0000 -12.8273 1.2197 -31.0342 10.2773 17.5629 60.4112 1.7665 -9.2461 -23.8325 0.5438 -4.7246 -13.1247 0.0000 0.0000 0.0000 16.5915 4.7893 -31.1422 -10.4370 -17.6484 60.9392 -1.7738 -5.0333 -27.3846 -0.4363 4.2385 -11.7486 -2.5041 1.0538 12.9722 0.5752 0.7790 6.5258 1.9077 0.1802 -0.4711 -16.2950 -7.6444 -3.0987 25.2299 -8.9742 -12.4333 10.6136 -4.9283 -0.8809 -0.0000 -0.0000 0.0000 -3.5036 -58.6969 -9.9694 42.4879 -49.4767 -20.3107 -0.0000 -0.0000 0.1607 15.1823 19.8476 5.2639 -7.1250 0.0000 -0.0000 -13.0941 50.0282 -1.6479 -0.0000 -0.0000 0.0000 5.8464 67.0911 -13.6535 -40.5584 48.3973 -18.8558 0.0000 -0.0000 -1.3421 -2.3631 24.7540 -0.9900 7.1250 -0.0000 -0.0000 16.4938 -6.0354 15.3331
5.5939 14.8046 -2.3136 -169.6690 -82.8745 169.7220 0.0000 0.0000 0.0000 -12.9430 1.2297 -30.9899 10.2648 17.5561 60.3699 1.7658 -9.3060 -23.8294 0.5276 -4.6546 -12.9260 0.0000 0.0000 0.0000 16.4810 4.7477 -31.1299 -10.4352 -17.6474 60.9332 -1.7640 -5.0386 -27.3201 -0.4366 4.2399 -11.7526 -2.6322 1.0575 12.9870 0.5667 0.7678 6.5367 1.9725 0.1713 -0.4682 -16.4677 -7.6316 -2.9986 25.4641 -8.9520 -12.5149 10.7376 -4.9290 -0.8981 -0.0000 -0.0000 0.0000 -3.3846 -58.6338 -9.9942 42.5392 -49.5044 -20.3497 -0.0000 -0.0000 0.0956 15.3001 19.8326 5.3027 -7.1250 0.0000 -0.0000 -12.9760 50.0318 -1.6337 -0.0000 -0.0000 0.0000 5.7572 67.0844 -13.7485 -40.5624 48.3996 -18.8587 0.0000 -0.0000 -1.4020 -2.4062 24.9206 -1.0144 7.1250 -0.0000 -0.0000 16.4651 -5.8726 15.3575
5.5948 14.8026 -2.3138 -169.6610 -82.8561 169.6850 0.0000 0.0000 0.0000 -12.9217 1.2503 -30.9891 10.2724 17.5602 60.3948 1.7679 -9.3827 -23.8463 0.5104 -4.5794 -12.7127 0.0000 0.0000 0.0000 16.4925 4.7679 -31.0998 -10.4397 -17.6498 60.9482 -1.7646 -5.0680 -27.3399 -0.4705 4.3991 -12.2024 -2.6368 1.0571 12.9682 0.5606 0.7644 6.5864 1.9695 0.1667 -0.4057 -16.5931 -7.6267 -2.9540 25.6763 -8.9415 -12.5506 10.8400 -4.9324 -0.8945 0.0000 -0.0000 0.0000 -3.1410 -58.6325 -10.1833 42.4654 -49.4646 -20.2936 -0.0000 -0.0000 0.0906 15.3690 19.7035 5.2945 -7.1250 0.0000 -0.0000 -12.8623 49.9140 -1.5813 0.0000 -0.0000 0.0000 5.5199 67.0704 -13.9757 -40.5302 48.3809 -18.8347 0.0000 -0.0000 -1.4604 -2.5634 25.0976 -1.0879 7.1250 -0.0000 -0.0000 16.3690 -5.6916 15.3185
5.5964 14.7989 -2.3141 -169.0500 -82.8306 169.0820 0.0000 0.0000 0.0000 -12.8152 1.2701 -31.0493 10.2924 17.5710 60.4612 1.7679 -9.3952 -23.8470 0.5155 -4.6017 -12.7759 0.0000 0.0000 0.0000 16.5848 4.8158 -31.1134 -10.4484 -17.6544 60.9768 -1.7757 -5.0804 -27.4224 -0.4905 4.4907 -12.4613 -2.5420 1.0470 12.9859 0.5492 0.7615 6.5723 1.9044 0.1683 -0.4288 -16.6065 -7.6049 -2.9183 25.7334 -8.9202 -12.4995 10.8642 -4.9237 -0.8858 0.0000 0.0000 0.0000 -3.0827 -58.6145 -10.1650 42.4597 -49.4615 -20.2893 -0.0000 -0.0000 0.0485 15.4228 19.6900 5.3104 -7.1250 0.0000 -0.0000 -12.8060 49.9089 -1.5725 0.0000 0.0000 0.0000 5.5086 67.0409 -14.0000 -40.5548 48.3952 -18.8531 0.0000 -0.0000 -1.5346 -2.6057 25.0932 -1.1057 7.1250 -0.0000 -0.0000 16.3439 -5.6927 15.2926
5.5982 14.7936 -2.3147 -168.4850 -82.8274 168.5260 0.0000 0.0000 0.0000 -12.7186 1.3048 -31.1173 10.3173 17.5845 60.5438 1.7565 -9.4467 -23.7709 0.5161 -4.6045 -12.7840 0.0000 0.0000 0.0000 16.6683 4.8257 -31.1153 -10.4599 -17.6605 61.0146 -1.7837 -5.0528 -27.4627 -0.4686 4.3904 -12.1778 -2.4727 1.0352 13.0093 0.5540 0.7528 6.5731 1.8714 0.1654 -0.4394 -16.5302 -7.6335 -2.9759 25.6290 -8.9655 -12.4231 10.8032 -4.9385 -0.8571 -0.0000 0.0000 0.0000 -3.0301 -58.5643 -10.1699 42.5162 -49.4920 -20.3322 -0.0000 -0.0000 0.0044 15.4153 19.6615 5.3004 -7.1250 0.0000 -0.0000 -12.8028 49.8793 -1.5627 -0.0000 0.0000 0.0000 5.4524 67.0451 -14.1000 -40.6078 48.4259 -18.8927 0.0000 -0.0000 -1.6299 -2.5258 24.9961 -1.0679 7.1250 -0.0000 -0.0000 16.3929 -5.7917 15.3103
5.6006 14.7900 -2.3152 -168.4850 -82.8346 168.5260 0.0000 0.0000 0.0000 -12.7019 1.3151 -31.1748 10.3397 17.5965 60.6177 1.7498 -9.5492 -23.7298 0.4911 -4.4932 -12.4686 0.0000 0.0000 0.0000 16.6696 4.8258 -31.1319 -10.4744 -17.6681 61.0625 -1.7800 -5.0496 -27.4360 -0.4602 4.3518 -12.0684 -2.5099 1.0338 13.0106 0.5811 0.7451 6.6069 1.9217 0.1584 -0.4050 -16.5024 -7.6914 -3.1022 25.4815 -9.0407 -12.3696 10.7311 -4.9613 -0.8173 -0.0000 -0.0000 0.0000 -2.9990 -58.5141 -10.2481 42.5632 -49.5172 -20.3679 -0.0000 0.0000 -0.0028 15.3727 19.5476 5.2558 -7.1250 0.0000 -0.0000 -12.8016 49.7593 -1.5243 -0.0000 -0.0000 0.0000 5.1924 67.0706 -14.3538 -40.6183 48.4320 -18.9005 0.0000 -0.0000 -1.6932 -2.4873 24.9793 -1.0509 7.1250 -0.0000 -0.0000 16.4160 -5.8105 15.3277
5.6016 14.7885 -2.3150 -168.3890 -82.8024 168.4170 0.0000 0.0000 0.0000 -12.6712 1.3251 -31.1959 10.3606 17.6077 60.6868 1.7538 -9.6055 -23.7598 0.4740 -4.4156 -12.2489 0.0000 0.0000 0.0000 16.6848 4.8772 -31.1741 -10.4918 -17.6773 61.1197 -1.7687 -5.1359 -27.4042 -0.4699 4.3965 -12.1949 -2.5341 1.0400 13.0272 0.6148 0.7501 6.6089 1.9696 0.1597 -0.4126 -16.6213 -7.6563 -2.9613 25.5450 -8.9859 -12.5222 10.7932 -4.9450 -0.8847 -0.0000 0.0000 0.0000 -3.1103 -58.4714 -10.1862 42.5817 -49.5272 -20.3820 -0.0000 -0.0000 0.0013 15.3812 19.4564 5.2354 -7.1250 0.0000 -0.0000 -12.7604 49.6696 -1.4907 -0.0000 0.0000 0.0000 5.0618 67.0945 -14.4489 -40.5740 48.4063 -18.8674 0.0000 -0.0000 -1.6878 -2.5425 25.1093 -1.0795 7.1250 -0.0000 -0.0000 16.3811 -5.6819 15.3341
5.6010 14.7848 -2.3148 -168.1390 -82.7784 168.1690 0.0000 0.0000 0.0000 -12.6244 1.3168 -31.2243 10.3846 17.6205 60.7662 1.7650 -9.5696 -23.8341 0.4917 -4.4958 -12.4758 0.0000 0.0000 0.0000 16.7164 4.9288 -31.2250 -10.5144 -17.6891 61.1942 -1.7659 -5.2077 -27.4229 -0.4762 4.4253 -12.2765 -2.5582 1.0395 12.9958 0.6606 0.7484 6.6156 2.0314 0.1571 -0.3894 -16.6056 -7.5965 -2.7334 25.5121 -8.9013 -12.7492 10.8068 -4.9232 -1.0093 -0.0000 -0.0000 0.0000 -3.1600 -58.4694 -10.1829 42.5093 -49.4883 -20.3270 -0.0000 -0.0000 0.0075 15.5046 19.4508 5.2778 -7.1250 0.0000 -0.0000 -12.6409 49.6831 -1.4806 -0.0000 -0.0000 0.0000 4.9190 67.1179 -14.5475 -40.5315 48.3816 -18.8356 0.0000 -0.0000 -1.6474 -2.6254 25.2023 -1.1186 7.1250 -0.0000 -0.0000 16.3306 -5.5866 15.3133
5.6022 14.7767 -2.3146 -168.4400 -82.8157 168.4800 0.0000 0.0000 0.0000 -12.6689 1.2700 -31.2915 10.4089 17.6334 60.8463 1.7751 -9.4719 -23.8985 0.5344 -4.6843 -13.0103 0.0000 0.0000 0.0000 16.6558 4.9126 -31.2836 -10.5440 -17.7046 61.2917 -1.7777 -5.1506 -27.4737 -0.4681 4.3882 -12.1715 -2.6427 1.0350 12.9728 0.6784 0.7340 6.6216 2.0996 0.1475 -0.3709 -16.4530 -7.5866 -2.6195 25.3163 -8.8922 -12.8555 10.7208 -4.9263 -1.0842 0.0000 -0.0000 0.0000 -3.1475 -58.5043 -10.2097 42.4202 -49.4402 -20.2592 -0.0000 0.0000 -0.0159 15.5958 19.5099 5.3257 -7.1250 0.0000 -0.0000 -12.5753 49.7562 -1.4956 0.0000 -0.0000 0.0000 4.8038 67.1130 -14.6668 -40.5600 48.3982 -18.8570 0.0000 -0.0000 -1.5961 -2.6961 25.1007 -1.1444 7.1250 -0.0000 -0.0000 16.2902 -5.6789 15.2422
5.6040 14.7682 -2.3141 -168.9560 -82.8325 168.9620 0.0000 0.0000 0.0000 -12.7395 1.2771 -31.3163 10.4272 17.6432 60.9070 1.7727 -9.4360 -23.8808 0.5473 -4.7395 -13.1672 0.0000 0.0000 0.0000 16.5741 4.9068 -31.2931 -10.5759 -17.7212 61.3963 -1.7916 -5.0717 -27.5271 -0.4547 4.3260 -11.9957 -2.6930 1.0545 13.0389 0.6555 0.7511 6.6156 2.1015 0.1556 -0.4137 -16.3495 -7.6000 -2.6765 25.2100 -8.9201 -12.7427 10.6545 -4.9319 -1.0506 -0.0000 -0.0000 0.0000 -3.2783 -58.5475 -10.1132 42.4162 -49.4380 -20.2562 -0.0000 0.0000 -0.0096 15.5316 19.5283 5.3076 -7.1250 0.0000 -0.0000 -12.6432 49.7645 -1.5065 -0.0000 -0.0000 0.0000 4.8642 67.0648 -14.6982 -40.5885 48.4147 -18.8782 0.0000 -0.0000 -1.5404 -2.7556 25.0236 -1.1663 7.1250 -0.0000 -0.0000 16.2561 -5.7485 15.1850
